#N canvas 827 239 527 327 12;
#X obj 146 448 readsf~ 1;
#X obj 146 771 dac~;
#X msg 50 402 stop;
#X msg 140 363 open reggae_drum_loop.wav \, 1, f 15;
#X obj 146 599 +~;
#X obj 246 143 lop~ 10, f 8;
#X obj 246 78 knob 50 0 600 0 0 empty empty #191919 #696969 #E1E1E1 1 0 0 0 1 270 0 0 0;
#X obj 331 209 delread4~ mydelay, f 18;
#X obj 180 143 lop~ 10, f 8;
#X obj 180 78 knob 50 0 0.9 0 0 empty empty #191919 #696969 #E1E1E1 1 0 0 0 1 270 0 0 0;
#X obj 331 277 *~;
#X obj 188 724 delwrite~ mydelay 600;
#X obj 116 143 lop~ 10;
#X obj 116 78 knob 50 0 1 0 0 empty empty #191919 #696969 #E1E1E1 1 0 0 0 1 270 0 0 0;
#X obj 331 312 *~;
#X obj 636 78 tgl 50 0 empty empty empty 17 7 0 10 #191919 #e1e1e1 #e1e1e1 0 1;
#X text 636 49 SHOOT;
#X text 246 47 TIME, f 7;
#X text 116 47 MIX;
#X obj 383 78 knob 50 0 0.2 0 0 empty empty #191919 #696969 #E1E1E1 1 0 0 0 1 270 0 0 0;
#X text 383 47 VOLUME, f 10;
#X obj 449 78 knob 50 50 1000 0 0 empty empty #191919 #696969 #E1E1E1 1 0 0 0 1 270 0 0 50;
#X text 449 47 PITCH, f 10;
#X obj 510 78 knob 50 20 500 0 0 empty empty #191919 #696969 #E1E1E1 1 0 0 0 1 270 0 0 20;
#X text 510 47 RANGE, f 10;
#X obj 574 78 knob 50 0.01 10 0 0 empty empty #191919 #696969 #E1E1E1 1 0 0 0 1 270 0 0 0.01;
#X text 574 47 RATE, f 10;
#X obj 383 133 lop~ 10, f 8;
#X obj 449 133 lop~ 10, f 8;
#X obj 510 133 lop~ 10, f 8;
#X obj 574 133 lop~ 10, f 8;
#X obj 636 318 sig~;
#X obj 449 428 *~;
#X obj 636 356 rampsmooth~ 441 441;
#X obj 370 533 *~;
#X obj 449 261 +~;
#X obj 574 175 sine~;
#X obj 510 219 *~;
#X obj 449 318 square~;
#X obj 331 587 +~;
#X obj 188 312 t b;
#X text 50 18 --- Delay ---;
#X text 383 18 --- Siren ---;
#X obj 50 78 tgl 50 0 empty empty empty 17 7 0 10 #191919 #e1e1e1 #e1e1e1 0 1;
#X obj 50 312 sel 0 1;
#X text 50 47 LOOP;
#X text 180 47 REPEAT, f 10;
#X obj 331 43 vu 20 120 empty empty -1 -8 0 10 #191919 #e1e1e1 1 0;
#X obj 207 637 rms~;
#X obj 207 672 send rms_signal;
#X obj 326 -9 receive rms_signal;
#X obj 449 364 lop~ 1500, f 12;
#X connect 0 0 4 0;
#X connect 0 1 40 0;
#X connect 2 0 0 0;
#X connect 3 0 0 0;
#X connect 4 0 1 0;
#X connect 4 0 1 1;
#X connect 4 0 48 0;
#X connect 4 0 11 0;
#X connect 5 0 7 0;
#X connect 6 0 5 0;
#X connect 7 0 10 0;
#X connect 8 0 10 1;
#X connect 9 0 8 0;
#X connect 10 0 14 1;
#X connect 12 0 14 0;
#X connect 13 0 12 0;
#X connect 14 0 39 0;
#X connect 15 0 31 0;
#X connect 19 0 27 0;
#X connect 21 0 28 0;
#X connect 23 0 29 0;
#X connect 25 0 30 0;
#X connect 27 0 34 1;
#X connect 28 0 35 0;
#X connect 29 0 37 0;
#X connect 30 0 36 0;
#X connect 31 0 33 0;
#X connect 32 0 34 0;
#X connect 33 0 32 1;
#X connect 34 0 39 1;
#X connect 35 0 38 0;
#X connect 36 0 37 1;
#X connect 37 0 35 1;
#X connect 38 0 51 0;
#X connect 39 0 4 1;
#X connect 40 0 3 0;
#X connect 43 0 44 0;
#X connect 44 0 2 0;
#X connect 44 1 3 0;
#X connect 48 0 49 0;
#X connect 50 0 47 0;
#X connect 51 0 32 0;
