#N canvas 827 239 527 327 12;
#X obj 210 584 sig~, f 6;
#X obj 170 624 vcf~ 1, f 10;
#X obj 170 544 noise~;
#X text 265 166 Cut-of frequency in Hz;
#X obj 189 666 dac~;
#X text 266 194 Q - Resonance;
#X obj 122 167 hsl 128 17 60 84 0 0 empty empty empty -2 -8 0 10 #191919 #e1e1e1 #e1e1e1 0 1;
#X obj 122 195 hsl 128 17 40 200 0 0 empty empty empty -2 -8 0 10 #191919 #e1e1e1 #e1e1e1 0 1;
#X text 61 623 Band-pass filter;
#X obj 328 508 send output_signal;
#X obj 328 488 pack f f;
#X obj 328 451 t b f;
#X obj 119 64 loadbang;
#X obj 423 20 receive output_predicted;
#X text 448 507 For data collection;
#X obj 423 58 unpack f f;
#X text 52 543 A source of noise;
#X text 119 19 --- Minimal substractive synthesis module --;
#X obj 210 424 mtof;
#X obj 423 95 ftom;
#X text 593 19 Signal from ML model prediction;
#X obj 13236 12546 ml.ann;
#X obj 13036 12046 receive input_signal;
#X obj 13036 12086 receive output_signal;
#X msg 13616 12226 train;
#X text 13076 12545 The regression model: Neural network, f 20;
#X msg 13636 12106 mode 1;
#X obj 13616 12066 loadbang;
#X text 13616 12045 Model config;
#X text 13696 12105 0 for classification \; 1 for regression;
#X msg 13636 12146 num_outputs 2;
#X text 13656 12225 Train neural net !;
#X obj 13696 12066 bng 25 250 50 0 empty empty empty 17 7 0 10 #191919 #e1e1e1 #e1e1e1;
#X text 13756 12145 Number of outputs N;
#X text 13176 12045 List of float;
#X text 13176 12085 List of size num_output;
#X obj 12996 12166 list append;
#X obj 12996 12086 t b l;
#X listbox 12996 12126 8 0 0 0 - - - 12;
#X obj 13236 12446 switch 3 0;
#X obj 13236 11966 hradio 21 1 0 3 empty empty empty 0 -11 0 12 #fcfcfc #000000 #000000 0;
#X obj 13056 12226 prepend add;
#X obj 13256 12386 prepend map;
#X obj 13236 12586 send output_predicted;
#X text 13136 11965 Left = Nothing;
#X text 13076 12005 1) Data collection;
#X text 13616 12005 2) Training;
#X text 13076 12385 3) Inference / Prediction;
#X text 13316 11965 Middle = 1) Data collection;
#X text 13316 11985 Right = 3) Inference / Prediction;
#X msg 13616 12266 clear;
#X text 13656 12265 Dump neural net;
#X msg 13616 12306 write ~/Documents/pretrained_models/my_regression;
#X msg 13616 12356 read ~/Documents/pretrained_models/my_regression;
#X obj 966 608 ml.ann;
#X obj 766 108 receive input_signal;
#X obj 766 148 receive output_signal;
#X msg 1346 288 train;
#X text 806 607 The regression model: Neural network, f 20;
#X msg 1366 168 mode 1;
#X obj 1346 128 loadbang;
#X text 1346 107 Model config;
#X text 1426 167 0 for classification \; 1 for regression;
#X msg 1366 208 num_outputs 2;
#X text 1386 287 Train neural net !;
#X obj 1426 128 bng 25 250 50 0 empty empty empty 17 7 0 10 #191919 #e1e1e1 #e1e1e1;
#X text 1486 207 Number of outputs N;
#X text 906 107 List of float;
#X text 906 147 List of size num_output;
#X obj 726 228 list append;
#X obj 726 148 t b l;
#X listbox 726 188 8 0 0 0 - - - 12;
#X obj 966 508 switch 3 0;
#X obj 966 28 hradio 21 1 0 3 empty empty empty 0 -11 0 12 #fcfcfc #000000 #000000 0;
#X obj 786 288 prepend add;
#X obj 986 448 prepend map;
#X obj 966 648 send output_predicted;
#X text 866 27 Left = Nothing;
#X text 806 67 1) Data collection;
#X text 1346 67 2) Training;
#X text 806 447 3) Inference / Prediction;
#X text 1046 27 Middle = 1) Data collection;
#X text 1046 47 Right = 3) Inference / Prediction;
#X msg 1346 328 clear;
#X text 1386 327 Dump neural net;
#X msg 1346 368 write ~/Documents/pretrained_models/my_regression;
#X msg 1346 418 read ~/Documents/pretrained_models/my_regression;
#X connect 0 0 1 1;
#X connect 1 0 4 0;
#X connect 1 1 4 1;
#X connect 2 0 1 0;
#X connect 6 0 18 0;
#X connect 7 0 1 2;
#X connect 7 0 11 0;
#X connect 10 0 9 0;
#X connect 11 0 10 0;
#X connect 11 1 10 1;
#X connect 12 0 6 0;
#X connect 12 0 7 0;
#X connect 13 0 15 0;
#X connect 15 0 19 0;
#X connect 15 1 7 0;
#X connect 18 0 10 0;
#X connect 18 0 0 0;
#X connect 19 0 6 0;
#X connect 21 0 43 0;
#X connect 22 0 37 0;
#X connect 22 0 42 0;
#X connect 23 0 38 0;
#X connect 24 0 21 0;
#X connect 26 0 21 0;
#X connect 27 0 26 0;
#X connect 27 0 30 0;
#X connect 30 0 21 0;
#X connect 32 0 26 0;
#X connect 32 0 30 0;
#X connect 36 0 41 0;
#X connect 37 0 38 0;
#X connect 37 1 36 1;
#X connect 38 0 36 0;
#X connect 39 0 21 0;
#X connect 40 0 39 0;
#X connect 41 0 39 1;
#X connect 42 0 39 2;
#X connect 50 0 21 0;
#X connect 52 0 21 0;
#X connect 53 0 21 0;
#X connect 54 0 76 0;
#X connect 55 0 70 0;
#X connect 55 0 75 0;
#X connect 56 0 71 0;
#X connect 57 0 54 0;
#X connect 59 0 54 0;
#X connect 60 0 59 0;
#X connect 60 0 63 0;
#X connect 63 0 54 0;
#X connect 65 0 59 0;
#X connect 65 0 63 0;
#X connect 69 0 74 0;
#X connect 70 0 71 0;
#X connect 70 1 69 1;
#X connect 71 0 69 0;
#X connect 72 0 54 0;
#X connect 73 0 72 0;
#X connect 74 0 72 1;
#X connect 75 0 72 2;
#X connect 83 0 54 0;
#X connect 85 0 54 0;
#X connect 86 0 54 0;
