#N canvas 827 239 527 327 12;
#X text 20 18 Plugdata cheat sheet;
#X text 127 228 New object (N);
#X obj 255 229;
#X msg 255 275 hello;
#X obj 255 312 print;
#X text 192 87 The basics;
#X text 464 87 Graphic user interface;
#X text 135 277 Message (M);
#X text 464 146 Button (B);
#X obj 550 147 bng 25 250 50 0 empty empty empty 17 7 0 10 #191919 #e1e1e1 #e1e1e1;
#X text 464 212 Toggle (T);
#X obj 550 208 tgl 25 0 empty empty empty 17 7 0 10 #191919 #e1e1e1 #e1e1e1 0 1;
#X obj 553 256 vsl 17 128 0 127 0 0 empty empty empty 0 -9 0 10 #191919 #e1e1e1 #e1e1e1 0 1;
#X text 464 277 Slider (S);
#X obj 255 372 nbx 4 18 -1e+37 1e+37 0 0 empty empty empty 0 -8 0 10 #191919 #e1e1e1 #e1e1e1 0 256;
#X text 142 367 Number (N);
#X floatatom 255 423 10 0 0 0 - - - 12;
#X text 141 422 Float box (F);
#X text 107 177 New comment (C);
#X obj 870 147 adc~;
#X text 750 146 Microphone;
#X text 808 87 Audio;
#X text 760 212 Speaker;
#X obj 870 213 dac~;
#X obj 870 278 osc~ 440;
#X text 760 274 Sinusoid;
#X obj 870 335 sig~;
#X text 704 334 Controllable signal;
#X obj 1346 121 receive tag1;
#X obj 1256 160 send tag1;
#X obj 1256 121 bng 25 250 50 0 empty empty empty 17 7 0 10 #191919 #e1e1e1 #e1e1e1;
#X obj 1346 157 bng 25 250 50 0 empty empty empty 17 7 0 10 #191919 #e1e1e1 #e1e1e1;
#X obj 1256 192 send~ tag2;
#X obj 1345 192 receive~ tag2;
#X text 1060 146 Send/Receive messages;
#X text 1068 195 Send/Receive signals;
#X text 160 488 Triggers;
#X obj 255 489 t b b i f;
#X text 160 582 Router;
#X obj 255 583 route;
#X text 157 629 Selecter;
#X obj 255 626 sel;
#X text 1176 87 Communication within / without device;
#X text 1050 298 Send/Receive OSC message;
#X obj 1256 299 osc.send;
#X obj 1334 299 osc.receive;
#X obj 1334 335 osc.route;
#X obj 1252 335 osc.parse;
#X text 1050 334 Parse and route OSC message;
#X connect 3 0 4 0;
#X connect 12 0 16 0;
#X connect 28 0 31 0;
#X connect 30 0 29 0;
